<?xml version="1.0" standalone="no"?>
<!DOCTYPE svg PUBLIC "-//W3C//DTD SVG 20010904//EN"
 "http://www.w3.org/TR/2001/REC-SVG-20010904/DTD/svg10.dtd">
<svg version="1.0" xmlns="http://www.w3.org/2000/svg"
 width="1779.000000pt" height="1779.000000pt" viewBox="0 0 1779.000000 1779.000000"
 preserveAspectRatio="xMidYMid meet">
<metadata>
Created by potrace 1.14, written by Peter Selinger 2001-2017
</metadata>
<g transform="translate(0.000000,1779.000000) scale(0.100000,-0.100000)"
fill="#000000" stroke="none">
<path d="M5559 16923 c0 -21 0 -145 0 -275 0 -172 -4 -237 -12 -240 -7 -2
-132 -3 -279 -3 -148 1 -268 -1 -269 -4 -1 -8 -1 -1049 0 -1078 l1 -23 555 0
c522 0 555 1 555 18 0 9 1 134 1 277 l1 260 277 0 276 0 1 272 c0 184 -3 273
-10 276 -6 2 -133 3 -283 3 -149 -1 -269 2 -267 6 3 5 6 337 5 501 l-1 47
-275 0 -275 0 -1 -37z"/>
<path d="M10029 15852 l-26 -3 0 -555 0 -554 277 0 276 0 0 549 c-1 302 -4
552 -8 556 -6 7 -468 13 -519 7z"/>
<path d="M1664 14181 c-2 -2 -4 -127 -4 -277 l0 -273 280 0 c154 -1 280 2 281
6 1 11 1 469 0 513 l-1 35 -276 0 c-152 0 -278 -2 -280 -4z"/>
<path d="M5563 14177 c-3 -5 -5 -129 -5 -277 l0 -269 -507 0 c-278 0 -529 0
-556 -1 l-51 0 0 -277 0 -278 -277 -3 -277 -2 0 -278 0 -277 -280 1 -280 0 0
-557 0 -558 -247 0 c-137 0 -262 0 -278 0 l-31 -1 1 -277 1 -278 -276 2 -275
1 -1 552 c-1 303 -4 553 -7 556 -3 4 -130 6 -282 7 l-275 0 1 171 c0 94 0 218
0 277 l-1 105 -275 0 -275 0 -1 -86 c0 -47 -1 -170 -2 -275 l-2 -190 -275 -1
-275 -2 0 -281 0 -280 -260 0 c-143 0 -268 0 -277 0 -17 -1 -18 -48 -18 -834
l0 -833 278 1 277 0 0 -835 0 -835 275 0 275 0 2 -520 c1 -286 2 -535 2 -552
l1 -33 275 0 275 0 0 -277 c0 -153 1 -404 3 -558 l2 -280 280 0 280 0 -1 -552
c-2 -503 0 -552 15 -555 9 -2 133 -3 276 -3 l260 1 0 -549 c0 -302 2 -552 5
-557 3 -5 129 -8 280 -7 l275 2 0 -559 0 -559 278 0 277 0 0 -276 c0 -152 0
-401 0 -554 l-1 -278 278 3 278 3 -1 -282 0 -283 6673 0 6673 0 0 1390 0 1390
-27 1 c-16 0 -143 1 -283 1 l-255 1 3 557 2 557 -277 -1 -278 -1 0 275 0 275
-277 3 -277 2 0 268 c0 147 -1 272 -2 277 -1 6 0 15 1 20 1 6 2 132 2 280 l-1
270 277 0 277 0 0 562 c0 373 3 559 10 553 6 -4 130 -8 277 -7 l268 0 0 556 0
557 -833 0 -832 -1 0 -280 0 -280 -556 0 -555 1 0 -269 c1 -148 -1 -272 -4
-277 -3 -4 -254 -7 -557 -7 l-553 0 -2 271 c-2 149 -2 400 0 557 l3 285 269 0
c148 0 272 3 276 7 4 4 7 128 6 277 l0 270 278 0 c214 0 279 3 282 13 2 6 3
131 2 277 l-1 265 277 -1 277 0 0 838 c1 621 -2 836 -11 831 -8 -5 -8 -3 0 8
8 10 12 97 12 282 l0 267 -32 1 c-17 0 -142 1 -277 1 l-245 0 1 537 c0 295 -1
544 -4 554 -3 16 -25 17 -281 17 l-278 0 0 549 c0 302 -2 553 -5 557 -4 7
-1033 11 -1092 5 -7 -1 -10 -97 -10 -280 0 -154 -3 -277 -7 -275 -6 4 -233 6
-463 5 l-90 -1 0 -834 0 -835 270 0 c149 0 275 0 280 -1 7 0 10 -188 10 -556
l0 -556 -278 1 c-214 1 -277 -2 -278 -12 -1 -6 -2 -131 -3 -277 l-1 -265 -545
-1 c-300 0 -549 1 -555 3 -6 2 -10 103 -9 278 l1 275 -221 -1 c-122 0 -248 0
-281 0 l-60 1 1 555 c0 383 -3 555 -10 556 -6 0 -131 1 -277 1 l-266 0 1 262
c1 143 -2 269 -7 279 -4 9 -4 17 0 17 4 0 8 123 7 272 l-1 273 -276 3 -277 2
0 280 0 280 -57 0 c-85 1 -337 1 -423 0 l-75 0 0 -277 0 -278 -281 -3 -280 -2
0 -555 c0 -348 4 -552 10 -548 5 4 6 1 0 -8 -5 -8 -9 -137 -9 -286 l-1 -273
281 0 280 0 0 -278 0 -277 -470 2 c-258 1 -509 2 -557 3 l-88 0 0 275 0 275
-57 0 c-32 1 -408 1 -835 2 l-777 0 0 557 0 558 252 0 c139 1 264 1 278 2 l25
1 0 278 -1 277 280 0 280 0 0 555 0 554 -828 1 c-456 0 -831 -4 -834 -8z
m2772 -6107 c-3 -5 -12 -10 -18 -10 -7 0 -6 4 3 10 19 12 23 12 15 0z m7795
-6120 c0 -5 -2 -10 -4 -10 -3 0 -8 5 -11 10 -3 6 -1 10 4 10 6 0 11 -4 11 -10z"/>
<path d="M17283 11402 l-53 -3 0 -275 0 -274 -47 0 c-27 -1 -275 -2 -553 -3
l-505 -2 0 -555 0 -555 275 0 275 0 0 280 0 280 270 -1 c148 -1 273 -2 278 -3
4 0 7 -126 7 -279 l0 -277 280 -1 280 0 0 833 0 833 -42 1 c-248 3 -422 3
-465 1z"/>
</g>
</svg>
