<?xml version="1.0" encoding="UTF-8"?>
<svg id="Layer_2" data-name="Layer 2" xmlns="http://www.w3.org/2000/svg" viewBox="0 0 245.41 404.7">
  <defs>
    <style>
      .cls-1 {
        fill: #231a20;
      }

      .cls-1, .cls-2 {
        stroke-width: 0px;
      }

      .cls-2 {
        fill: #ecece3;
      }
    </style>
  </defs>
  <g id="Layer_1-2" data-name="Layer 1">
    <g>
      <g>
        <rect class="cls-2" width="245.41" height="404.7" rx="15.91" ry="15.91"/>
        <g>
          <path class="cls-1" d="M229.5,8.74H15.91c-3.96,0-7.17,3.22-7.17,7.17v372.87c0,3.96,3.22,7.17,7.17,7.17h213.58c3.96,0,7.17-3.22,7.17-7.17V15.91c0-3.96-3.22-7.17-7.17-7.17ZM235.36,388.78c0,3.23-2.63,5.86-5.86,5.86H15.91c-3.23,0-5.86-2.63-5.86-5.86V15.91c0-3.23,2.63-5.86,5.86-5.86h213.58c3.23,0,5.86,2.63,5.86,5.86v372.87Z"/>
          <path class="cls-1" d="M17.35,13.63c-2.36,0-4.28,1.92-4.28,4.28s1.92,4.28,4.28,4.28,4.28-1.92,4.28-4.28-1.92-4.28-4.28-4.28ZM17.35,20.86c-1.63,0-2.96-1.33-2.96-2.96s1.33-2.96,2.96-2.96,2.96,1.33,2.96,2.96-1.33,2.96-2.96,2.96Z"/>
          <path class="cls-1" d="M228.06,13.63c-2.36,0-4.28,1.92-4.28,4.28s1.92,4.28,4.28,4.28,4.28-1.92,4.28-4.28-1.92-4.28-4.28-4.28ZM228.06,20.86c-1.63,0-2.96-1.33-2.96-2.96s1.33-2.96,2.96-2.96,2.96,1.33,2.96,2.96-1.33,2.96-2.96,2.96Z"/>
          <path class="cls-1" d="M219.7,13.53H25.71c-.36,0-.66.29-.66.66s.29.66.66.66h193.98c.36,0,.66-.29.66-.66s-.29-.66-.66-.66Z"/>
          <path class="cls-1" d="M228.06,382.52c-2.36,0-4.28,1.92-4.28,4.28s1.92,4.28,4.28,4.28,4.28-1.92,4.28-4.28-1.92-4.28-4.28-4.28ZM228.06,389.76c-1.63,0-2.96-1.33-2.96-2.96s1.33-2.96,2.96-2.96,2.96,1.33,2.96,2.96-1.33,2.96-2.96,2.96Z"/>
          <path class="cls-1" d="M17.35,382.52c-2.36,0-4.28,1.92-4.28,4.28s1.92,4.28,4.28,4.28,4.28-1.92,4.28-4.28-1.92-4.28-4.28-4.28ZM17.35,389.76c-1.63,0-2.96-1.33-2.96-2.96s1.33-2.96,2.96-2.96,2.96,1.33,2.96,2.96-1.33,2.96-2.96,2.96Z"/>
          <path class="cls-1" d="M219.7,389.85H25.71c-.36,0-.66.29-.66.66s.29.66.66.66h193.98c.36,0,.66-.29.66-.66s-.29-.66-.66-.66Z"/>
          <path class="cls-1" d="M231.61,379.79c.36,0,.66-.29.66-.66V25.56c0-.36-.29-.66-.66-.66s-.66.29-.66.66v353.57c0,.36.29.66.66.66Z"/>
          <path class="cls-1" d="M91.69,383.39c.42.09.85.14,1.29.14,3.31,0,5.99-2.68,5.99-5.99s-2.68-5.99-5.99-5.99c-.44,0-.87.05-1.29.14,2.69.59,4.7,2.98,4.7,5.85s-2.01,5.26-4.7,5.85Z"/>
          <path class="cls-1" d="M104.54,382.93c.79.38,1.68.6,2.61.6,3.31,0,5.99-2.68,5.99-5.99s-2.68-5.99-5.99-5.99c-.94,0-1.82.21-2.61.6,2,.97,3.38,3.02,3.38,5.39s-1.38,4.42-3.38,5.39Z"/>
          <path class="cls-1" d="M118.3,375.05c-.02.05-.05.1-.07.15-.3.72-.47,1.51-.47,2.33,0,3.31,2.68,5.99,5.99,5.99s5.99-2.68,5.99-5.99c0-.83-.17-1.62-.47-2.33-.02-.05-.05-.1-.07-.15-.02-.04-.03-.08-.05-.11-.97-2.01-3.02-3.39-5.4-3.39s-4.43,1.39-5.4,3.39c-.02.04-.03.08-.05.11Z"/>
          <path class="cls-1" d="M155.82,371.69c-.41-.09-.85-.14-1.29-.14-3.31,0-5.99,2.68-5.99,5.99s2.68,5.99,5.99,5.99c.44,0,.87-.05,1.29-.14-2.69-.59-4.7-2.98-4.7-5.85s2.01-5.26,4.7-5.85Z"/>
          <path class="cls-1" d="M142.97,372.14c-.79-.38-1.68-.6-2.61-.6-3.31,0-5.99,2.68-5.99,5.99s2.68,5.99,5.99,5.99c.94,0,1.82-.21,2.61-.6-2-.97-3.38-3.02-3.38-5.39s1.38-4.42,3.38-5.39Z"/>
          <path class="cls-1" d="M91.69,33.01c.42.09.85.14,1.29.14,3.31,0,5.99-2.68,5.99-5.99s-2.68-5.99-5.99-5.99c-.44,0-.87.05-1.29.14,2.69.59,4.7,2.99,4.7,5.85s-2.01,5.26-4.7,5.85Z"/>
          <path class="cls-1" d="M104.54,32.56c.79.38,1.68.6,2.61.6,3.31,0,5.99-2.68,5.99-5.99s-2.68-5.99-5.99-5.99c-.94,0-1.82.21-2.61.6,2,.97,3.38,3.02,3.38,5.39s-1.38,4.42-3.38,5.39Z"/>
          <path class="cls-1" d="M129.28,24.83c-.02-.05-.05-.1-.07-.15-.02-.04-.03-.08-.05-.11-.97-2.01-3.02-3.39-5.4-3.39s-4.43,1.39-5.4,3.39c-.02.04-.03.08-.05.11-.02.05-.05.1-.07.15-.3.72-.47,1.51-.47,2.33,0,3.31,2.68,5.99,5.99,5.99s5.99-2.68,5.99-5.99c0-.83-.17-1.62-.47-2.33Z"/>
          <path class="cls-1" d="M155.82,21.31c-.41-.09-.85-.14-1.29-.14-3.31,0-5.99,2.68-5.99,5.99s2.68,5.99,5.99,5.99c.44,0,.87-.05,1.29-.14-2.69-.59-4.7-2.99-4.7-5.85s2.01-5.26,4.7-5.85Z"/>
          <path class="cls-1" d="M142.97,21.77c-.79-.38-1.68-.6-2.61-.6-3.31,0-5.99,2.68-5.99,5.99s2.68,5.99,5.99,5.99c.94,0,1.82-.22,2.61-.6-2-.97-3.38-3.02-3.38-5.39s1.38-4.42,3.38-5.39Z"/>
          <path class="cls-1" d="M13.66,379.89c.36,0,.66-.29.66-.66V25.66c0-.36-.29-.66-.66-.66s-.66.29-.66.66v353.57c0,.36.29.66.66.66Z"/>
          <path class="cls-1" d="M38.38,343.16c0,.36.29.66.66.66s.66-.29.66-.66-.29-.66-.66-.66-.66.29-.66.66Z"/>
          <circle class="cls-1" cx="95.43" cy="358.32" r=".66"/>
          <path class="cls-1" d="M128.29,57.13c0,.36.29.66.66.66s.66-.29.66-.66-.29-.66-.66-.66-.66.29-.66.66Z"/>
          <circle class="cls-1" cx="188.57" cy="39.74" r=".66"/>
          <path class="cls-1" d="M48.74,61.89c-.36,0-.66.29-.66.66s.29.66.66.66.66-.29.66-.66-.29-.66-.66-.66Z"/>
          <circle class="cls-1" cx="80.21" cy="52.78" r=".66"/>
          <circle class="cls-1" cx="190.76" cy="371.36" r=".66"/>
          <circle class="cls-1" cx="54.22" cy="373.53" r=".66"/>
          <path class="cls-1" d="M165.37,64.74c0-.36-.29-.66-.66-.66s-.66.29-.66.66.29.66.66.66.66-.29.66-.66Z"/>
          <circle class="cls-1" cx="209.79" cy="52.25" r=".66"/>
          <circle class="cls-1" cx="29.8" cy="316.04" r=".66"/>
          <path class="cls-1" d="M41.79,38.85c-.52,0-.94.42-.94.94s.42.94.94.94.94-.42.94-.94-.42-.94-.94-.94Z"/>
          <path class="cls-1" d="M68.91,343.28c0,.52.42.94.94.94s.94-.42.94-.94-.42-.94-.94-.94-.94.42-.94.94Z"/>
          <path class="cls-1" d="M32.33,365.19c0,.52.42.94.94.94s.94-.42.94-.94-.42-.94-.94-.94-.94.42-.94.94Z"/>
          <path class="cls-1" d="M156.91,360.47c.52,0,.94-.42.94-.94s-.42-.94-.94-.94-.94.42-.94.94.42.94.94.94Z"/>
          <path class="cls-1" d="M22.64,169.95c-.52,0-.94.42-.94.94s.42.94.94.94.94-.42.94-.94-.42-.94-.94-.94Z"/>
          <path class="cls-1" d="M214.28,355.72c0,.52.42.94.94.94s.94-.42.94-.94-.42-.94-.94-.94-.94.42-.94.94Z"/>
          <path class="cls-1" d="M153.45,45.64c0-.52-.42-.94-.94-.94s-.94.42-.94.94.42.94.94.94.94-.42.94-.94Z"/>
          <path class="cls-1" d="M103,43.96c0-.52-.42-.94-.94-.94s-.94.42-.94.94.42.94.94.94.94-.42.94-.94Z"/>
        </g>
      </g>
      <g>
        <path class="cls-1" d="M116.1,224.24c.47.82,1.04,1.36,1.69,1.6.31.12.63.17.96.17,1.94,0,3.97-1.89,4.97-2.97,1,1.07,3.02,2.97,4.97,2.97.32,0,.64-.05.96-.17.65-.24,1.22-.78,1.69-1.6,1.83-3.21.15-7.4-.76-9.66-1.4-3.49-3.52-6.7-6.31-9.54,0,0-.02-.02-.03-.03-.02-.01-.03-.03-.05-.04-.01-.01-.03-.02-.05-.03-.02-.01-.03-.02-.05-.03-.02,0-.04-.02-.05-.03-.01,0-.02-.01-.04-.02,0,0,0,0-.01,0-.02,0-.04-.01-.06-.02-.02,0-.03-.01-.05-.01-.02,0-.04,0-.06,0-.02,0-.04,0-.06,0-.02,0-.04,0-.05,0-.02,0-.04,0-.06,0-.02,0-.04,0-.05,0-.02,0-.04,0-.06,0-.02,0-.03,0-.05.01-.02,0-.04.01-.06.02,0,0,0,0-.01,0-.01,0-.02.01-.04.02-.02,0-.04.02-.05.03-.02,0-.03.02-.05.03-.02.01-.03.02-.05.03-.02.01-.03.03-.05.04,0,0-.02.02-.03.03-2.78,2.84-4.91,6.05-6.31,9.54-.91,2.25-2.59,6.45-.76,9.66ZM122.95,207.52v14.08c-.83.97-2.78,2.88-4.18,2.88-.16,0-.31-.02-.45-.08-.3-.11-.62-.44-.9-.93-1.47-2.57.04-6.32.85-8.34,1.1-2.74,2.67-5.29,4.68-7.62ZM129.1,224.41c-1.39.52-3.71-1.73-4.63-2.8v-14.08c2.01,2.33,3.58,4.89,4.68,7.62.81,2.02,2.32,5.77.85,8.34-.28.49-.6.82-.9.93Z"/>
        <path class="cls-1" d="M92.38,201.55c1.3,4.24,6.6,5.46,9.64,5.8.55.06,1.09.09,1.61.09,6.43,0,10.93-4.36,11.83-5.3,1.75-1.83,3.05-4.03,3.87-6.52.13-.4-.09-.83-.49-.96-.4-.13-.83.09-.96.49-.55,1.68-1.34,3.21-2.36,4.57-.35-2.26-1.47-5.95-5.09-8.39-4.03-2.71-8.31-1.94-9.53-1.64-2.5.62-4.18,1.91-4.78,2.43-1.94,1.69-4.92,5.59-3.74,9.43ZM97.13,193.27c.52-.45,1.96-1.57,4.14-2.1.33-.08,1.26-.28,2.51-.28,1.62,0,3.77.34,5.81,1.71,4.07,2.74,4.52,7.48,4.56,8.72-1.27,1.26-5.8,5.22-11.95,4.52-2.15-.24-7.27-1.19-8.36-4.73-.95-3.1,1.73-6.48,3.28-7.83Z"/>
        <path class="cls-1" d="M173.33,150.53c1.33-.77,10.22-6.08,11.21-10.4.22-.96.07-1.83-.45-2.58-.67-.96-1.48-1.11-2.04-1.06-1.66.14-3.68,2.24-6.18,6.41-1.45,2.42-2.6,4.78-2.99,5.6.03-1.28.04-2.89,0-4.53-.21-6.98-1.33-8.49-2.16-9.02-.56-.36-1.22-.36-1.86-.02-2,1.06-2.13,4.15-.4,9.46.97,2.99,2.24,5.76,2.71,6.75-.87,1.45-1.56,2.94-2.08,4.46-.32-1.07-.82-2.66-1.43-4.29-2.03-5.41-3.43-6.37-4.3-6.63-.63-.19-1.26-.03-1.78.45-.52.47-.79,1.12-.8,1.88,0,.43.09.89.25,1.38-.31.49-.57,1.12-.77,1.83-.09-.11-.17-.2-.24-.26-.79-.86-1.69-1.64-2.68-2.32,1.49-6.2.55-7.53.21-8.01-.41-.58-1.01-.87-1.74-.85-.72.02-1.36.34-1.89.95-.94,1.07-1.49,3.08-1.78,5.4-.38-.12-.77-.24-1.16-.34,2.86-5.27,4.19-11.99,3.44-16.1-.32-1.78-1.01-2.93-2.05-3.43-.5-.24-1.04-.22-1.51.07-.95.57-2.35,2.49-3.49,12.61-.09.77-.16,1.53-.24,2.28-.13,1.35-.24,2.65-.32,3.8,0,.07,0,.13-.01.19-.01-.07-.03-.13-.05-.2-.43-1.99-.7-4.06-.82-6.22-.03-.56-.06-1.12-.07-1.69,0-.42-.35-.75-.76-.75,0,0-.01,0-.02,0-.42,0-.75.36-.75.78.02.88.06,1.74.13,2.6-.51-1.07-1.08-2.23-1.68-3.39-4.02-7.73-6-8.81-7.15-8.95-.71-.09-1.36.22-1.84.86-2.08,2.82,1.34,8.09,10.77,16.58-1.19-.06-2.43-.05-3.69,0-4.07-3.62-5.45-3.6-5.97-3.59-.57.01-1.05.24-1.38.66-.49.63-.9,1.77-.1,3.66.03.06.06.12.08.18-3.21.63-6.55,1.57-9.96,2.83-5.03.27-12.53,1.63-20.03,6.55-.07.04-.13.09-.19.13,1.03-2.01,1.85-4.62,1.71-7.72-.16-3.77-1.68-6.64-2.92-8.38-.19-.27-.53-.38-.85-.28-.24.08-.42.27-.5.5l-2.66-7.27c-.11-.29-.38-.49-.69-.5-.31,0-.6.17-.72.45l-1.93,4.34c-1.26-1.71-2.6-3.06-3.77-4.07-.31-.27-.77-.24-1.05.05-1.12,1.18-2.11,2.45-2.98,3.81l-4.96-4.8c-.21-.2-.51-.27-.79-.17-.27.1-.47.34-.5.63l-.88,7.7c-.05-.03-.1-.06-.16-.09-2.74-1.49-5.39-1.71-7.13-1.63-.4.02-.71.34-.73.74-.06,2.26.11,4.53.52,6.75,0,0,0,.01,0,.01l-6.31,2.96c-.21.1-.37.29-.42.52-.05.23,0,.47.15.65l3.54,4.39c-.9.62-1.78,1.36-2.63,2.22-.18.19-.26.45-.2.71.88,3.86,2.51,6.52,4.86,7.9.34.2.72.36,1.16.49-.06.88-.14,1.65-.23,2.4-.2,1.79-.39,3.47-.15,6.28.38,4.57,1.13,9.14,2.22,13.61-2.66-2.19-5.52-4.13-8.55-5.78-.26-.14-.58-.12-.81.05-.24.17-.35.47-.3.76.66,3.46,1.55,6.86,2.68,10.17-2.61-1.89-5.39-3.52-8.3-4.86-2.86-1.32-5.86-2.37-8.92-3.12-.26-.06-.53.01-.72.2-.19.19-.27.46-.21.71,1.06,4.62,2.67,9.1,4.78,13.34,1.53,3.07,3.34,6.03,5.38,8.8-2.15-.19-4.3-.29-6.45-.31h0c-.26,0-.51.14-.65.36-.14.23-.15.51-.03.75,2.93,5.68,6.83,10.73,11.58,14.99,4.92,4.41,10.56,7.8,16.77,10.1-.62,1.99-.93,4.06-.89,6.14.1,5.74,2.72,12.8,8.32,15.64,3.31,1.68,6.59,1.28,9.48.94.64-.08,1.26-.15,1.86-.2.09.12.17.24.26.35,3.64,4.94,5.29,6.45,6.21,7.17,0,0,.16.12.32.24.81.59,1.83,1.09,3,1.52-.29,1.63-1.16,3.6-3.24,5.73-5.98,6.13-17,2.69-17.11,2.66-.35-.11-.74.05-.91.38-.17.33-.08.74.22.96,4.67,3.51,10.19,5.49,15.52,5.58.13,0,.25,0,.38,0,5.06,0,9.61-1.68,12.84-4.76,2.63-2.51,3.9-5.66,4.51-8.34.88.07,1.73.12,2.55.16.01,0,.02,0,.04,0s.03,0,.04,0c5.88-.3,13.66-1.21,17.34-3.87.16-.12.32-.24.33-.25.92-.71,2.56-2.22,6.21-7.16,2.13-2.89,4.17-5.9,6.04-8.94.97-1.58,1.68-3.3,2.1-5.08,7.52-2.16,14.07-5.95,18.97-10.98,5.03-5.16,7.9-11.17,8.27-17.37.43-6.99-2.36-14.71-7.27-20.14-1.02-1.13-2.1-2.12-3.21-2.99-.02-.16-.04-.32-.06-.48,4.31-1.66,8.56-7.9,8.69-11.66.06-1.69-.66-2.92-2.03-3.45-.78-.31-1.59-.24-2.34.19-2.06,1.18-3.57,5.16-4.52,8.63-.1-1.05-.22-2.1-.34-3.15-.23-1.92-.49-3.82-.79-5.7,0-.03,0-.05-.01-.08-.13-.83-.27-1.67-.41-2.49-.13-.71-.25-1.38-.36-2,.46-.11,1.09-.28,1.81-.49,2.65-.78,6.49-2.24,7.38-4.27.33-.74.28-1.51-.15-2.24-.42-.73-1.05-1.13-1.83-1.18-1.35-.08-3.09.97-5.31,3.2-.12.13-.25.25-.38.39-.77.8-1.45,1.59-1.98,2.23-.54-2.92-.83-4.91-.5-7.48.09-.68.22-1.36.38-2.04.56-.07,1.51-.19,2.64-.36.79-.12,1.67-.27,2.57-.45,5.54-1.09,6.76-2.21,7.2-2.95.28-.47.32-1.01.11-1.51-.21-.49-.61-.85-1.16-1.02-.5-.15-2.01-.63-7.48,2.16-.4.21-.8.41-1.18.62-.73.39-1.4.77-1.97,1.1.52-1.38,1.2-2.73,2.03-4.05.18-.29.37-.57.56-.85ZM171.36,147.84c-.48-1.15-1.02-2.54-1.48-3.95-1.37-4.23-1.49-7.01-.33-7.63.11-.06.18-.07.23-.07s.08.02.1.03c.21.13,1.25,1.14,1.46,7.78.04,1.36.04,2.7.02,3.85ZM182.17,138s.04,0,.07,0c.13,0,.34.05.59.41.27.4.34.84.22,1.38-.57,2.49-4.91,5.84-8.13,7.96,2.22-4.41,5.49-9.6,7.25-9.75ZM177.7,163.06c.18.01.39.07.6.42.18.3.2.57.07.86-.55,1.24-3.32,2.45-5.95,3.28-.24.08-.48.15-.72.22.24-.28.48-.55.73-.83,1.87-2.07,4.01-3.95,5.21-3.95.02,0,.04,0,.06,0ZM177.76,175.83c.21-.12.41-.18.6-.18.14,0,.28.03.43.09.28.11,1.12.43,1.06,1.98-.11,2.95-3.45,8-6.84,9.88.75-3.76,2.5-10.48,4.75-11.76ZM134.78,143.93c-.23-.54-.55-1.54-.1-2.12.02-.03.06-.07.21-.08,0,0,0,0,.01,0,.41,0,1.44.29,3.77,2.21.25.21.52.44.8.68.25.22.51.46.79.71.86.79,1.85,1.75,2.99,2.91,1.1,1.13,2.15,2.26,3.07,3.27.32.36.63.69.91,1.01.29.33.56.63.8.9-1.54-.35-3.03-.89-4.43-1.57-.56-.27-1.1-.56-1.62-.86-2.6-1.52-4.75-3.43-6.08-5.19-.18-.23-.34-.46-.48-.69-.15-.24-.29-.47-.41-.7-.09-.17-.17-.33-.24-.49ZM134.99,128.11c.16-.22.28-.25.37-.25.02,0,.04,0,.06,0,.44.05,2.16.8,5.97,8.13.95,1.83,1.82,3.67,2.49,5.13-9.83-9.19-9.53-12.15-8.89-13.02ZM148.28,144.18c.03-.45.07-.92.11-1.41.13-1.61.3-3.4.51-5.2.38-3.23.81-5.83,1.29-7.72.78-3.06,1.44-3.28,1.44-3.28,0,0,.02,0,.04.02.55.27.98,1.09,1.21,2.33.7,3.86-.67,10.46-3.48,15.46-.04.06-.07.13-.11.19-.1.17-.19.33-.29.5-.14.23-.29.46-.43.69-.14.21-.28.42-.43.63.01-.22.03-.45.05-.7.02-.24.03-.49.05-.76.02-.24.04-.49.05-.75ZM153.58,145.62c.24-2.21.69-4.05,1.46-4.92.33-.37.61-.42.79-.43.01,0,.02,0,.03,0,.23,0,.33.08.42.21.28.4.71,1.77-.33,6.28-.06.25-.12.5-.18.77-.06.25-.13.5-.19.76-.16.62-.35,1.29-.56,2.02-.36,1.22-.75,2.42-1.11,3.5-.16.46-.31.91-.45,1.32-.04-.76-.07-1.57-.09-2.41-.04-1.81-.03-3.73.09-5.52.02-.27.04-.53.06-.79.02-.27.05-.53.08-.78ZM161.42,151.72c.11-.58.24-1.11.4-1.56.53.93,1.21,1.88,1.94,2.79-.1.67-.24,1.4-.4,2.16-.09.42-.19.86-.29,1.3-.11.45-.22.91-.34,1.37-.44,1.71-.96,3.48-1.51,5.17-.19-2.7-.31-6.06-.09-8.87.03-.43.07-.84.12-1.24.05-.39.1-.76.17-1.11ZM162.28,146.99c0-.44.17-.64.3-.76.11-.1.19-.13.25-.13.03,0,.06,0,.08.01.31.09.66.44,1.04.98.49.7,1.02,1.72,1.54,2.93.58,1.32,1.15,2.87,1.66,4.46-.58-.62-1.2-1.3-1.79-2.01-.23-.28-.46-.55-.67-.83-.25-.31-.48-.63-.7-.94-.5-.7-.93-1.4-1.23-2.03-.12-.25-.22-.49-.29-.71-.09-.27-.15-.53-.17-.77,0-.07,0-.13,0-.2ZM159.76,203c.09,1.1.24,2.19.39,3.25.06.41.11.82.16,1.22,0-.02-.01-.03-.02-.05-.25-.49-.48-.94-.7-1.32-.38-.68-.69-1.16-.84-1.4l-.05-.08c-1.04-1.64-1.67-4.37-1.88-8.14-.03-.58-.06-1.19-.07-1.83,1.19.5,2.34,1.08,3.44,1.79-.03.15-.05.29-.08.43-.32,1.7-.6,3.16-.34,6.12ZM145.75,167.49c.33,0,.71.02,1.14.06.36.04.75.09,1.19.16,1.85.31,4.45.97,8.09,2.25.12.04.25.09.37.13.58.21,1.16.42,1.71.63.12.04.23.09.35.13.15.06.3.11.45.17.27.1.53.2.79.3,1.33.52,2.54,1.02,3.51,1.43,0,0,0,0,.01,0,0,0,0,0,0,0-1.2.14-2.49.23-3.82.28-.54.02-1.08.03-1.62.04-.01,0-.02,0-.03,0-.39,0-.79,0-1.18,0-.38,0-.77-.01-1.15-.03-4.92-.17-9.62-1-11.44-2.72-.05-.05-.09-.1-.14-.14-.19-.2-.33-.41-.43-.63-.11-.25-.17-.52-.16-.8,0-.07,0-.14.02-.21.04-.33.2-.55.51-.72.29-.16.78-.31,1.61-.33.08,0,.16,0,.24,0ZM112.22,169.03c0-.38.12-.74.33-1.03.32-.45.85-.74,1.44-.74.98,0,1.77.79,1.77,1.77s-.79,1.77-1.77,1.77c-.59,0-1.12-.29-1.44-.74-.21-.29-.33-.64-.33-1.03ZM105.98,162.25c-.98,0-1.77-.79-1.77-1.77s.79-1.77,1.77-1.77,1.77.79,1.77,1.77-.79,1.77-1.77,1.77ZM135.32,149.61c0,.07,0,.13-.02.19-.09.43-.47.75-.93.75-.52,0-.95-.42-.95-.95,0-.14.03-.27.09-.39.15-.33.48-.55.86-.55.52,0,.95.42.95.95ZM128.64,149.34c.77-.12,1.5.16,2,.68.31.32.52.74.6,1.22.19,1.24-.66,2.4-1.9,2.6-.06,0-.12.01-.19.02.41-.49.62-1.14.51-1.82-.18-1.18-1.24-2-2.41-1.92.22-.26.49-.46.8-.6.18-.08.38-.14.58-.17ZM125.21,152.78c.52,0,.95.42.95.95s-.42.95-.95.95-.95-.42-.95-.95.42-.95.95-.95ZM160.52,183.87c-.17-.06-.34-.11-.5-.17-3.89-1.3-6.7-2.24-6.97-4.38-.21-1.67,1.14-3.1,3.04-4.74.4,0,.8.01,1.19.01s.79,0,1.19-.01c.25.71.47,1.41.67,2.1-.55,0-1.05.08-1.48.25-.82.33-1.37.97-1.6,1.85-.22.86-.05,1.67.5,2.35.74.93,2.19,1.56,3.88,1.98.03.25.06.5.09.75ZM166.91,194.12c.22-.47.78-.68,1.26-.46.47.22.68.78.46,1.26-.22.47-.78.68-1.26.46-.47-.22-.68-.78-.46-1.26ZM169.12,226.37c-.22.47-.78.68-1.26.46-.47-.22-.68-.78-.46-1.26.22-.47.78-.68,1.26-.46.47.22.68.78.46,1.26ZM162.16,231.97c-.22.47-.78.68-1.26.46-.47-.22-.68-.78-.46-1.26.22-.47.78-.68,1.26-.46.47.22.68.78.46,1.26ZM159.39,189.76c-.22.47-.78.68-1.26.46-.47-.22-.68-.78-.46-1.26.22-.47.78-.68,1.26-.46.47.22.68.78.46,1.26ZM149.86,185.85c-.22.47-.78.68-1.26.46-.47-.22-.68-.78-.46-1.26.22-.47.78-.68,1.26-.46.47.22.68.78.46,1.26ZM147.44,175.19c-.22.47-.78.68-1.26.46-.47-.22-.68-.78-.46-1.26.22-.47.78-.68,1.26-.46.47.22.68.78.46,1.26ZM169.58,182.47c-.44,0-.91,0-1.39-.01-2.08-.05-4.42-.23-6.39-.6-.57-.11-1.11-.23-1.6-.38-1.14-.33-2.03-.76-2.46-1.3-.25-.31-.31-.62-.21-1.02.11-.42.32-.67.69-.82.27-.11.59-.16.96-.16.11,0,.24,0,.36.02.49.04,1.04.14,1.64.3,1.95.52,4.35,1.62,6.4,2.73.71.38,1.37.77,1.96,1.13.06.03.11.07.17.1-.04,0-.09,0-.14,0ZM166.43,178.93c-1.77-.86-3.84-1.72-5.66-2.07-.21-.77-.44-1.54-.7-2.33,1.43-.07,2.79-.18,4-.33.59-.07,1.14-.15,1.64-.24.14.22.27.45.41.69,1.02,1.75,1.9,3.59,2.64,5.51-.67-.37-1.47-.8-2.34-1.22ZM161.29,168.63l-.38-.76-.12-.25c.06.06.12.12.17.18.18.19.35.37.53.57.17.19.34.38.51.57.66.75,1.31,1.54,1.95,2.41-.49-.21-1.05-.44-1.65-.69-.41-.17-.85-.35-1.31-.53.23-.25.45-.5.66-.77l-.37-.75ZM163.28,166.99c-.18-.27-.33-.53-.45-.79-.18-.37-.29-.73-.33-1.07,0-.02,0-.03,0-.05-.05-.51.09-.93.42-1.32.04-.04.07-.08.11-.12.32-.32.58-.41.78-.41,0,0,0,0,0,0,.08,0,.15.01.21.03.17.04.34.13.51.24,1.66,1.13,3.52,5.45,4.71,9.04-2.01-1.43-4.65-3.57-5.96-5.54ZM158.45,163.22c-1.44-1.36-2.85-2.68-4.19-4.18-.15-.16-.29-.33-.44-.5.07-.19.16-.43.27-.73.2-.55.47-1.27.76-2.1l3.86,7.75c-.09-.08-.18-.17-.27-.25ZM151.86,154.06c.02.39.03.77.05,1.13.02.35.04.69.06,1.01-.48-.67-.95-1.39-1.4-2.16-.21-.35-.41-.72-.62-1.09-.04-.07-.07-.14-.11-.22-.66-1.25-1.23-2.54-1.73-3.89.71-.79,1.37-1.68,1.98-2.64l1.71,3.42c-.03,1.56,0,3.09.06,4.45ZM142.11,181.68c-.22.47-.78.68-1.26.46-.47-.22-.68-.78-.46-1.26.22-.47.78-.68,1.26-.46.47.22.68.78.46,1.26ZM173.11,216.69c.22-.47.78-.68,1.26-.46.47.22.68.78.46,1.26-.22.47-.78.68-1.26.46-.47-.22-.68-.78-.46-1.26ZM174.74,210.3c-1.25-.1-2.19-1.19-2.09-2.44,0-.06.01-.12.02-.19.38.51.97.86,1.65.92,1.19.09,2.23-.75,2.42-1.91.31.42.48.96.44,1.52-.1,1.25-1.19,2.19-2.44,2.09ZM173.88,201c-.22.47-.78.68-1.26.46-.47-.22-.68-.78-.46-1.26.22-.47.78-.68,1.26-.46.47.22.68.78.46,1.26ZM162.11,184.41c-.03-.31-.06-.63-.1-.96,2.5.43,5.22.53,6.94.54.11,0,.21,0,.31,0,.3,0,.55,0,.77,0,.35,1.28.64,2.58.88,3.92.04.25.08.5.12.75-3.02-2.02-6.16-3.28-8.92-4.24ZM167.44,173.88c-.23-.39-.46-.76-.69-1.13,0-.01-.01-.02-.02-.03-.06-.09-.12-.19-.17-.28,1.42,1.12,2.72,1.98,3.34,2.37.33,2.09.61,4.21.85,6.34-.87-2.56-1.97-4.99-3.31-7.28ZM164.72,161.89c.08-1.45-.1-2.83-.42-4.11.32-1.26.57-2.35.75-3.31,1.47,1.66,2.83,2.93,3.15,3.23.07.06.15.11.23.15-.13.61-.24,1.22-.32,1.83-.31,2.39-.13,4.27.28,6.68-1.24-2.51-2.45-3.98-3.67-4.47ZM141.57,152.52c2.44,1.36,5.18,2.37,7.96,2.72.88,1.43,1.8,2.69,2.75,3.83.05.09.11.17.19.23.09.11.18.21.27.32,0,.22-.02.4-.04.5-.05.43-.16.84-.31,1.23-2.22-2.5-4.99-5-8.44-7.27-.87-.57-1.74-1.09-2.6-1.57.07,0,.14,0,.22,0ZM144.06,191.17c2.18.54,3.62,1.65,4.14,2.1,1.55,1.35,4.23,4.73,3.28,7.83-1.08,3.54-6.2,4.49-8.36,4.73-6.15.7-10.68-3.26-11.95-4.52.04-1.23.48-5.97,4.56-8.72,3.6-2.42,7.56-1.61,8.32-1.43ZM160.93,215.94c1.69-2.92,1.22-6.31.73-9.89-.14-1.04-.29-2.11-.38-3.17-.22-2.61-.01-3.91.27-5.45.19.15.37.3.56.46,2.96,2.54,4.91,5.69,5.48,8.88.61,3.36-.22,7.04-2.39,10.64-1.98,3.29-5,6.37-8.77,8.98v-3.6c.98-1.39,1.95-2.84,2.89-4.29.21-.32,1.26-1.96,1.61-2.56ZM104.31,155.36c4.85-3.19,9.7-4.82,13.83-5.63-.84.38-1.69.78-2.53,1.2-3.43.8-11.61,3.46-15.56,11.01-.74,1.42-4.28,8.7-.98,12.38,3.75,4.2,12.91.11,13.94-.37,6.66-3.09,9.97-9.09,11.37-12.47,2.12-2.47,7.24-7.57,14.12-8.73,1.53.73,3.08,1.58,4.63,2.6,3.52,2.31,6.3,4.86,8.49,7.41-.91,1.25-2.29,2.32-3.87,3.35-2.09-.29-3.61-.16-4.58.37-.73.4-1.17,1.04-1.28,1.85-.06.45-.03.89.07,1.3-2.95,1.91-5.58,4.12-6.63,7.41-.26.81-1.04,3.26-.23,6.09.67,2.31,2.07,3.74,2.6,4.27.78.79,1.68,1.44,2.66,1.99-1.65.15-3.59.66-5.47,1.92-3.62,2.44-4.74,6.13-5.09,8.39-1.02-1.36-1.81-2.89-2.36-4.57-.13-.4-.56-.62-.96-.49-.4.13-.62.56-.49.96.82,2.49,2.12,4.69,3.86,6.52,0,0,0,0,0,0,.9.94,5.4,5.29,11.82,5.29.52,0,1.06-.03,1.61-.09,3.04-.35,8.34-1.56,9.64-5.8,1.1-3.6-1.44-7.25-3.37-9.09,1.89.47,3.79.96,5.64,1.61.05,5.4.77,9.13,2.2,11.37l.05.09c.22.35.81,1.27,1.46,2.57.64,1.29,1.18,2.63,1.6,4-.11,1.1-.38,2.13-.92,3.07-.34.58-1.44,2.3-1.57,2.49-.87,1.34-1.76,2.68-2.66,3.97-4.79-1.6-8.3-1.49-10.44.33-1.65,1.41-1.82,3.27-1.98,5.07-.14,1.55-.28,3.15-1.37,4.6-.04.05-.08.1-.12.16-.78,1.06-1.85,2.52-17.06,2.72-4.18.06-7.38-.03-9.83-.21-.01,0-.02,0-.03,0,0,0,0,0,0,0-1.75-.13-3.12-.3-4.2-.5-.07-.02-.14-.04-.21-.04-3.05-.59-3.67-1.38-4.06-1.88-.98-1.27-1.19-2.56-1.41-3.92-.26-1.62-.53-3.3-2.15-4.77-2.2-2-5.71-2.5-10.44-1.5l-.53-.77c-.73-1.06-1.46-2.15-2.17-3.25-.11-.18-1.03-1.6-1.45-2.3-.04-.07-.08-.14-.11-.19-.64-1.12-.91-2.37-.96-3.71.17-.54.35-1.04.62-1.67.2-.47.45-1.01.78-1.69.45-.92.83-1.59.96-1.81l.03-.05c1.19-2.08,2.09-6.66,2.73-13.99.04-.42-.27-.79-.69-.83-.42-.04-.79.27-.83.69-.62,7.01-1.47,11.51-2.54,13.37l-.03.05c-.1.17-.35.61-.67,1.23,0,.01-.01.02-.02.03,0-.03,0-.06.01-.09.02-.15.04-.3.06-.44.14-1.05.29-2.14.39-3.24,0,0,0,0,0,0,0,0,0,0,0,0,.25-2.96-.02-4.43-.34-6.12-.26-1.36-.55-2.91-.64-5.64-.08-2.51-.34-10.15,2.8-18.06,1.18-2.96,3.14-6.69,6.35-10.42.24-.16.42-.36.52-.6,2.11-2.35,4.72-4.68,7.96-6.81ZM134.45,245.42l.49-4.13c.45.11,1,.16,1.6.03.08-.02.15-.04.23-.06l-.43,3.85c-.54.1-1.17.21-1.9.31ZM120.01,246.42l-.2-4.45c.2.06.39.1.6.14.3.05.59.07.87.07.39,0,.75-.04,1.07-.11v4.33c-.83.02-1.61.02-2.34.02ZM58.37,188.12c3.52,1.63,6.85,3.68,9.89,6.11.05.13.1.26.15.39,1.31,3.39,2.86,6.68,4.65,9.86,1.06,1.88,2.2,3.71,3.41,5.49-3.2-.97-6.46-1.75-9.74-2.33-1.76-.31-3.54-.57-5.33-.77h0s0,0,0,0c-2.34-3.02-4.38-6.28-6.08-9.69-1.87-3.75-3.33-7.7-4.36-11.77,2.54.7,5.03,1.61,7.42,2.71ZM73.76,166.68c.06-.51.12-1.03.17-1.6.46.37.92.7,1.36,1.03,1.58,1.17,3.08,2.27,4.85,4.65,2.19,2.94,4.13,6.09,5.77,9.37-.04.19-.07.39-.1.58-.85,4.88-.71,8.88-.66,10.58.1,2.84.4,4.45.67,5.87.19,1.01.36,1.89.4,3.05-2.41-4-5.32-7.66-8.68-10.92-.4-.39-.81-.77-1.22-1.15,0-.03-.02-.06-.02-.09-1.35-5.04-2.26-10.21-2.69-15.4-.22-2.66-.04-4.27.15-5.98ZM86.41,177.8c-1.19-2.22-2.52-4.37-3.96-6.43,1.39-.05,2.78-.26,4.13-.62.95-.26,1.87-.59,2.76-1-.5,1.01-.93,1.97-1.29,2.87-.7,1.76-1.23,3.5-1.65,5.18ZM90.68,167.32c-1.4.87-2.91,1.53-4.49,1.96-1.57.43-3.19.62-4.82.57-1.91-2.57-3.57-3.79-5.17-4.97-.15-.11-.29-.21-.43-.32.41.02.84.02,1.31.02,2.45,0,5.68-.21,10-.54,2.91-.22,4.82-.38,6.22-.57-1,1.31-1.87,2.6-2.61,3.85ZM76.49,190.39c3.84,3.72,7.08,8,9.63,12.71-.09.99-.23,1.98-.36,2.95-.49,3.58-.95,6.97.73,9.89.35.6,1.4,2.23,1.61,2.56.03.05.07.1.1.15.52.8,1.04,1.59,1.57,2.37-.4.24-.79.48-1.17.75-.05-.05-.11-.1-.16-.15-3.5-3.26-6.66-6.84-9.45-10.69,0,0,0,0,0-.01-1.66-2.3-3.2-4.69-4.6-7.17-1.85-3.28-3.44-6.68-4.76-10.19,0,0,0-.02-.01-.03-1.32-3.49-2.37-7.08-3.16-10.75,3.64,2.13,7,4.69,10.02,7.62ZM113.79,235.76v4.55c-.38.18-.98.36-1.68.25-.54-.09-.97-.33-1.24-.54v-4.6c.84.13,1.81.25,2.92.34ZM118.23,236v4.33c-.43.17-.99.31-1.66.27-.43-.03-.86-.13-1.26-.31v-4.42c.89.05,1.86.1,2.92.13ZM136.87,239.57c-.17.11-.39.21-.64.26-.49.1-.92,0-1.22-.11v-4.19c.69-.07,1.31-.15,1.87-.23v4.27ZM133.48,239.67c-.34.11-.69.19-1.04.22-.39.04-.78.03-1.16-.03v-4.04c.79-.04,1.52-.09,2.2-.15v4ZM129.75,240.12c-.19.16-.37.29-.89.32-.48.03-.89-.05-1.23-.16v-4.31c.74-.02,1.45-.05,2.11-.08v4.23ZM126.11,240.32c-.41.15-1.08.34-1.62.33-.23,0-.44-.05-.62-.1v-4.51c.19,0,.37,0,.57,0,.58,0,1.14-.02,1.68-.03v4.32ZM122.35,240.51c-.46.13-1.04.21-1.69.1-.31-.05-.61-.14-.9-.27v-4.31c.7.01,1.44.02,2.22.02.12,0,.25,0,.38,0v4.46ZM113.44,246.05c-.45-.36-.92-.72-1.41-1.08-.22-.16-.44-.31-.66-.46l-.32-2.67c.25.09.52.17.82.22.78.13,1.47.02,2.01-.15l.47,4.25c-.32-.03-.62-.07-.9-.11ZM106.27,274.18c.22-.47.78-.68,1.26-.46.47.22.68.78.46,1.26-.22.47-.78.68-1.26.46-.47-.22-.68-.78-.46-1.26ZM107.43,242.08c-.1-.23-.18-.46-.25-.72.08.02.16.05.25.07.78.18,1.48.12,2.03-.02l.25,2.08c-.7-.4-1.41-.75-2.11-1.06-.1-.21-.16-.35-.16-.35ZM112.62,254.18c-.22.47-.78.68-1.26.46-.47-.22-.68-.78-.46-1.26.22-.47.78-.68,1.26-.46.47.22.68.78.46,1.26ZM85.01,241.36c.22-.47.78-.68,1.26-.46.47.22.68.78.46,1.26-.22.47-.78.68-1.26.46-.47-.22-.68-.78-.46-1.26ZM87.87,229.57c.22-.47.78-.68,1.26-.46.47.22.68.78.46,1.26-.22.47-.78.68-1.26.46-.47-.22-.68-.78-.46-1.26ZM92.3,248.05c-.47-.22-.68-.78-.46-1.26.22-.47.78-.68,1.26-.46.47.22.68.78.46,1.26-.22.47-.78.68-1.26.46ZM99.44,249.77c.64-.01,1.27-.28,1.71-.81.77-.91.69-2.25-.14-3.08.53,0,1.06.16,1.5.53.96.81,1.09,2.24.28,3.2-.81.96-2.24,1.09-3.2.28-.05-.04-.09-.08-.14-.13ZM116.65,264.88c-.22.47-.78.68-1.26.46-.42-.19-.63-.66-.52-1.09.01-.06.03-.11.06-.17.22-.47.78-.68,1.26-.46.36.17.57.54.54.92,0,.11-.03.23-.09.34ZM109.34,239.86c-.39.12-.94.22-1.58.08-.57-.13-.79-.39-.99-.64-.06-.42-.13-.89-.2-1.43-.28-2.01-.33-3.27-.35-3.87.69.42,1.66.8,3.12,1.13v4.72ZM105.06,238.09c.09.64.17,1.19.24,1.68,0,0,0,0,0,0,.12.76.23,1.37.38,1.91-5.34-1.84-10.34-1.51-13.17-1.06v-17.46c4.16-.87,7.18-.49,8.98,1.15,1.22,1.11,1.43,2.4,1.67,3.89.22,1.36.46,2.89,1.54,4.39-.01.4-.02.79-.01,1.19.01,1.25.13,2.66.36,4.32ZM66.46,209.14c3.87.68,7.72,1.66,11.45,2.88.24.32.47.64.71.96,2.62,3.47,5.54,6.72,8.73,9.7-1.94,1.55-3.59,3.42-4.86,5.54-.46.77-.87,1.56-1.22,2.37-.08.17-.15.35-.22.52-6.02-2.23-11.49-5.52-16.27-9.8-4.3-3.85-7.87-8.36-10.64-13.42,4.12.11,8.25.52,12.3,1.24ZM115.89,246.29l-.48-4.35c.35.1.7.16,1.06.18.69.04,1.29-.05,1.81-.2l.2,4.48c-.96-.02-1.82-.06-2.6-.11ZM123.87,242.12c.2.04.4.06.6.06.02,0,.04,0,.06,0,.48,0,1.01-.09,1.48-.22l-.38,4.33c-.52.03-1.06.05-1.67.07-.03,0-.06,0-.09,0v-4.25ZM127.55,241.84c.41.09.88.15,1.4.12.38-.02.68-.08.93-.17l-.6,4.21c-.75.07-1.43.14-2.11.19l.38-4.35ZM131.46,241.41c.37.03.74.03,1.12,0,.28-.03.56-.07.83-.14l-.52,4.35c-.45.05-.93.11-1.45.16-.21.02-.41.04-.6.06l.63-4.43ZM138.34,240.94c.26.04.52.07.78.07.02,0,.03,0,.05,0,.49,0,.94-.07,1.33-.18-.21,1.41-.37,2.34-.56,2.64-.32.51-.83.91-2.02,1.28l.42-3.8ZM141.12,235.1c-.18,1.85-.3,3.16-.39,4.02-.39.2-.93.38-1.59.37-.25,0-.5-.04-.75-.09v-4.36c1.34-.28,2.22-.6,2.83-.95-.05.48-.08.83-.1,1.02ZM103.47,146.57c.24,5.56-3.06,9.48-4.08,10.55,0,0,0,0,0,0-.62.52-1.22,1.05-1.79,1.59.26-.86.49-1.74.68-2.62.5-2.3,1.26-5.83.75-10.03.89-.87,1.62-1.89,2.16-3.01.22-.46.4-.94.55-1.44,0-.03.02-.05.02-.08.07-.23.13-.46.18-.69.76,1.5,1.42,3.42,1.52,5.72ZM97.29,133.35l2.93,8.04c-.12.35-.25.69-.41,1.02-.3.63-.67,1.21-1.1,1.75-.1-.45-.2-.91-.33-1.37-.63-2.28-1.57-4.26-2.64-5.95l1.54-3.48ZM90.51,132.92c2.29,2.12,5.08,5.5,6.4,10.27,1.46,5.27.47,9.85-.12,12.58-.32,1.49-.75,2.95-1.29,4.38-.18-.14-.35-.25-.48-.34-.85-.57-2.18-1.29-4.03-2.28l-.33-.18c-1.2-.65-2.29-1.24-3.28-1.77.12-.23.12-.52-.03-.76-1.28-2.06-2.77-5.36-2.55-9.38.17-3.16,1.34-5.57,2.12-7.17.94-1.94,2.15-3.74,3.59-5.35ZM82.02,132.5l4.11,3.98c-.2.37-.4.74-.58,1.12-.53,1.09-1.23,2.54-1.72,4.34-.75-.96-1.63-1.81-2.6-2.53l.79-6.92ZM78.92,139.74c1.63.89,3.06,2.17,4.13,3.72.1.15.24.24.4.29-.08.51-.14,1.05-.17,1.61-.2,3.75.93,6.91,2.13,9.15-6.12-3.31-7.67-4.07-9.61-4.03-.9-2.09-1.57-4.27-1.99-6.5-.35-1.87-.52-3.79-.51-5.7,1.51.02,3.53.32,5.62,1.46ZM67.54,148.2l5.11-2.4c.39,1.65.92,3.28,1.57,4.85-1.22.23-2.44.68-3.63,1.34l-3.05-3.79ZM72.08,162.3c-1.89-1.11-3.25-3.3-4.05-6.51,2.34-2.25,4.87-3.55,7.35-3.76,1.89-.16,2.83.31,10.83,4.64,1.1.6,2.34,1.27,3.72,2.02l.33.18c2.26,1.22,4.09,2.21,4.56,2.72-.9.41-4.3.67-7.89.94-7.97.61-12.95.9-14.86-.23ZM107.01,261.59c-.15-.11-.29-.22-.29-.22h0c-1.27-.98-3.09-3.07-5.56-6.39,1.75.03,3.38.43,4.95,1.72.45.37,2.7,2.37,3.08,5.43.02.2.04.41.05.63-.89-.36-1.63-.75-2.22-1.17ZM152.59,245.68c-1.85,3-3.86,5.98-5.97,8.84-2.65,3.59-4.58,5.84-5.9,6.85,0,0-.15.12-.3.22-2.67,1.93-8.37,3.17-16.49,3.59-.79-.04-1.56-.09-2.31-.14.29-1.93.26-3.44.23-4.01-.25-4.94-2.41-9.37-6.42-13.24,1.36.1,2.95.16,4.83.16.83,0,1.71-.01,2.64-.03.07.02.14.03.21.03.09,0,.17-.02.25-.05.22,0,.43-.01.65-.02,2.84-.09,4.43-.26,7.59-.59,2.4-.25,4.2-.5,5.56-.79.02,0,.04,0,.06-.01,2.29-.51,3.35-1.16,4.01-2.22.38-.62.54-1.65.88-3.91.1-.64.23-2.03.53-5.13.03-.27.1-1.01.2-1.96.04-.36.07-.66.1-.9,1.23-1.74,1.4-3.58,1.55-5.2.15-1.7.27-3.04,1.45-4.05,1.7-1.45,4.72-1.46,8.98-.04v4.71l-.43,12.99c0,.08,0,.16.03.23-.38,1.64-1.02,3.21-1.92,4.66ZM180.45,152.94c.17,0,.33.02.46.06.16.05.19.11.21.16.02.04.03.07-.02.14-.16.27-1.07,1.22-6.17,2.23-.64.13-1.26.24-1.86.33,2.84-1.55,5.9-2.92,7.39-2.92Z"/>
      </g>
      <path class="cls-1" d="M30.54,103.36h11.06c.09.44.27.85.52,1.21l-3.86,3.86c-.26.26-.26.67,0,.93.13.13.3.19.47.19s.34-.06.47-.19l3.88-3.88c.33.21.7.36,1.1.45v11.06c0,.36.29.66.66.66s.66-.29.66-.66v-11.06c.35-.07.68-.2.98-.37l3.81,3.81c.13.13.3.19.47.19s.34-.06.47-.19c.26-.26.26-.67,0-.93l-3.75-3.75c.29-.38.5-.83.6-1.32h11.06c.36,0,.66-.29.66-.66s-.29-.66-.66-.66h-11.06c-.09-.44-.27-.85-.52-1.21l3.86-3.86c.26-.26.26-.67,0-.93-.26-.26-.67-.26-.93,0l-3.88,3.88c-.33-.21-.7-.36-1.1-.45v-11.06c0-.36-.29-.66-.66-.66s-.66.29-.66.66v11.06c-.44.09-.85.27-1.21.52l-3.96-3.96c-.26-.26-.67-.26-.93,0-.26.26-.26.67,0,.93l3.98,3.98c-.21.33-.36.7-.44,1.1h-11.06c-.36,0-.66.29-.66.66s.29.66.66.66ZM44.83,100.73c1.09,0,1.97.89,1.97,1.97s-.89,1.97-1.97,1.97-1.97-.89-1.97-1.97.89-1.97,1.97-1.97Z"/>
      <path class="cls-1" d="M182.64,276.18h11.06c.09.44.27.85.52,1.21l-3.86,3.86c-.26.26-.26.67,0,.93.13.13.3.19.47.19s.34-.06.47-.19l3.88-3.88c.33.21.7.36,1.1.44v11.06c0,.36.29.66.66.66s.66-.29.66-.66v-11.06c.35-.07.68-.2.98-.37l3.81,3.81c.13.13.3.19.47.19s.34-.06.47-.19c.26-.26.26-.67,0-.93l-3.75-3.75c.29-.38.5-.83.6-1.32h11.06c.36,0,.66-.29.66-.66s-.29-.66-.66-.66h-11.06c-.09-.44-.27-.85-.52-1.21l3.86-3.86c.26-.26.26-.67,0-.93-.26-.26-.67-.26-.93,0l-3.88,3.88c-.33-.21-.7-.36-1.1-.44v-11.06c0-.36-.29-.66-.66-.66s-.66.29-.66.66v11.06c-.44.09-.85.27-1.21.52l-3.96-3.96c-.26-.26-.67-.26-.93,0-.26.26-.26.67,0,.93l3.98,3.98c-.21.33-.36.7-.44,1.1h-11.06c-.36,0-.66.29-.66.66s.29.66.66.66ZM196.92,273.55c1.09,0,1.97.89,1.97,1.97s-.89,1.97-1.97,1.97-1.97-.89-1.97-1.97.89-1.97,1.97-1.97Z"/>
      <path class="cls-1" d="M191.47,97.71c0,.36.29.66.66.66h5.18l-1.8,1.8c-.26.26-.26.67,0,.93.13.13.3.19.47.19s.34-.06.47-.19l1.8-1.8v5.18c0,.36.29.66.66.66s.66-.29.66-.66v-5.18l1.8,1.8c.13.13.3.19.47.19s.34-.06.47-.19c.26-.26.26-.67,0-.93l-1.8-1.8h5.18c.36,0,.66-.29.66-.66s-.29-.66-.66-.66h-5.18l1.8-1.8c.26-.26.26-.67,0-.93-.26-.26-.67-.26-.93,0l-1.8,1.8v-5.18c0-.36-.29-.66-.66-.66s-.66.29-.66.66v5.18l-1.8-1.8c-.26-.26-.67-.26-.93,0-.26.26-.26.67,0,.93l1.8,1.8h-5.18c-.36,0-.66.29-.66.66Z"/>
      <path class="cls-1" d="M30.97,247.68c0,.43.35.77.77.77h6.08l-2.12,2.12c-.3.3-.3.79,0,1.09.15.15.35.23.55.23s.4-.08.55-.23l2.12-2.12v6.08c0,.43.35.77.77.77s.77-.35.77-.77v-6.08l2.12,2.12c.15.15.35.23.55.23s.4-.08.55-.23c.3-.3.3-.79,0-1.09l-2.12-2.12h6.08c.43,0,.77-.35.77-.77s-.35-.77-.77-.77h-6.08l2.12-2.12c.3-.3.3-.79,0-1.09-.3-.3-.79-.3-1.09,0l-2.12,2.12v-6.08c0-.43-.35-.77-.77-.77s-.77.35-.77.77v6.08l-2.12-2.12c-.3-.3-.79-.3-1.09,0-.3.3-.3.79,0,1.09l2.12,2.12h-6.08c-.43,0-.77.35-.77.77Z"/>
      <path class="cls-1" d="M62.61,292.72c0,.36.29.66.66.66h2.69l-.72.72c-.26.26-.26.67,0,.93.13.13.3.19.47.19s.34-.06.47-.19l.97-.97v2.93c0,.23.19.42.42.42s.42-.19.42-.42v-2.93l.97.97c.13.13.3.19.47.19s.34-.06.47-.19c.26-.26.26-.67,0-.93l-.72-.72h2.69c.36,0,.66-.29.66-.66s-.29-.66-.66-.66h-2.69l.72-.72c.26-.26.26-.67,0-.93s-.67-.26-.93,0l-.97.97v-2.93c0-.23-.19-.42-.42-.42s-.42.19-.42.42v2.93l-.97-.97c-.26-.26-.67-.26-.93,0-.26.26-.26.67,0,.93l.72.72h-2.69c-.36,0-.66.29-.66.66Z"/>
      <path class="cls-1" d="M204.85,165.73c0,.36.29.66.66.66h2.69l-.72.72c-.26.26-.26.67,0,.93.13.13.3.19.47.19s.34-.06.47-.19l.97-.97v2.93c0,.23.19.42.42.42s.42-.19.42-.42v-2.93l.97.97c.13.13.3.19.47.19s.34-.06.47-.19c.26-.26.26-.67,0-.93l-.72-.72h2.69c.36,0,.66-.29.66-.66s-.29-.66-.66-.66h-2.69l.72-.72c.26-.26.26-.67,0-.93s-.67-.26-.93,0l-.97.97v-2.93c0-.23-.19-.42-.42-.42s-.42.19-.42.42v2.93l-.97-.97c-.26-.26-.67-.26-.93,0-.26.26-.26.67,0,.93l.72.72h-2.69c-.36,0-.66.29-.66.66Z"/>
      <path class="cls-1" d="M170.14,320.43c0,.36.29.66.66.66h2.69l-.72.72c-.26.26-.26.67,0,.93.13.13.3.19.47.19s.34-.06.47-.19l.97-.97v2.93c0,.23.19.42.42.42s.42-.19.42-.42v-2.93l.97.97c.13.13.3.19.47.19s.34-.06.47-.19c.26-.26.26-.67,0-.93l-.72-.72h2.69c.36,0,.66-.29.66-.66s-.29-.66-.66-.66h-2.69l.72-.72c.26-.26.26-.67,0-.93s-.67-.26-.93,0l-.97.97v-2.93c0-.23-.19-.42-.42-.42s-.42.19-.42.42v2.93l-.97-.97c-.26-.26-.67-.26-.93,0-.26.26-.26.67,0,.93l.72.72h-2.69c-.36,0-.66.29-.66.66Z"/>
      <g>
        <path class="cls-1" d="M122.64,122.25c-1.56,0-2.82,1.26-2.82,2.82s1.26,2.82,2.82,2.82,2.82-1.26,2.82-2.82-1.26-2.82-2.82-2.82Z"/>
        <circle class="cls-1" cx="122.64" cy="118.02" r="1.32"/>
        <circle class="cls-1" cx="122.64" cy="112.47" r="1.32"/>
        <path class="cls-1" d="M122.64,105.61c-.73,0-1.32.59-1.32,1.32s.59,1.32,1.32,1.32,1.32-.59,1.32-1.32-.59-1.32-1.32-1.32Z"/>
        <circle class="cls-1" cx="122.64" cy="100.26" r="2.44"/>
        <path class="cls-1" d="M99.07,107.7s.08,0,.11,0c.31,0,.59-.23.65-.55.06-.36-.18-.7-.54-.76l-17.07-2.97c-.36-.06-.7.18-.76.54-.06.36.18.7.54.76l17.07,2.97Z"/>
        <path class="cls-1" d="M81.21,91.9c-.15.33-.01.72.32.87l22.34,10.38c.09.04.18.06.28.06.25,0,.49-.14.6-.38.15-.33.01-.72-.32-.87l-22.34-10.38c-.33-.15-.72-.01-.87.32Z"/>
        <path class="cls-1" d="M105.64,95.42c.25-.27.23-.68-.04-.93l-12.75-11.73c-.27-.25-.68-.23-.93.04-.25.27-.23.68.04.93l12.75,11.73c.13.12.29.17.45.17.18,0,.35-.07.48-.21Z"/>
        <path class="cls-1" d="M98.2,72.52c-.31.19-.4.6-.2.91l13.21,20.79c.13.2.34.3.56.3.12,0,.24-.03.35-.1.31-.19.4-.6.2-.91l-13.21-20.79c-.2-.31-.6-.4-.91-.2Z"/>
        <path class="cls-1" d="M112.96,71.1c-.09-.35-.45-.56-.8-.47-.35.09-.56.45-.47.8l4.36,16.77c.08.3.34.49.64.49.05,0,.11,0,.17-.02.35-.09.56-.45.47-.8l-4.36-16.77Z"/>
        <path class="cls-1" d="M122.87,91.35c.36,0,.66-.29.66-.65l.11-24.63c0-.36-.29-.66-.65-.66h0c-.36,0-.66.29-.66.65l-.11,24.63c0,.36.29.66.65.66h0Z"/>
        <path class="cls-1" d="M129.95,89.06c.07.02.14.03.2.03.28,0,.53-.18.62-.45l5.39-16.46c.11-.35-.08-.72-.42-.83-.34-.11-.72.08-.83.42l-5.39,16.46c-.11.35.08.72.42.83Z"/>
        <path class="cls-1" d="M147.71,72.81c-.3-.2-.71-.11-.91.19l-13.45,20.64c-.2.3-.11.71.19.91.11.07.24.11.36.11.21,0,.43-.11.55-.3l13.45-20.64c.2-.3.11-.71-.19-.91Z"/>
        <path class="cls-1" d="M140.76,96.48c.13.16.32.24.51.24.15,0,.29-.05.42-.15l13.42-10.96c.28-.23.32-.64.09-.93-.23-.28-.64-.32-.93-.09l-13.42,10.96c-.28.23-.32.64-.09.93Z"/>
        <path class="cls-1" d="M140.82,103.03c.11.24.35.39.6.39.09,0,.18-.02.27-.06l22.47-10.1c.33-.15.48-.54.33-.87-.15-.33-.54-.48-.87-.33l-22.47,10.1c-.33.15-.48.54-.33.87Z"/>
        <path class="cls-1" d="M146.49,109.13s.05,0,.07,0l17.21-1.95c.36-.04.62-.37.58-.73-.04-.36-.36-.62-.73-.58l-17.21,1.95c-.36.04-.62.37-.58.73.04.34.32.58.65.58Z"/>
        <path class="cls-1" d="M167.36,118.5c.32,0,.6-.23.65-.56.05-.36-.19-.69-.55-.75l-24.36-3.63c-.36-.05-.69.19-.75.55-.05.36.19.69.55.75l24.36,3.63s.07,0,.1,0Z"/>
        <path class="cls-1" d="M103.11,113.88c-.05-.36-.38-.61-.74-.56l-24.4,3.35c-.36.05-.61.38-.56.74.05.33.33.57.65.57.03,0,.06,0,.09,0l24.4-3.35c.36-.05.61-.38.56-.74Z"/>
        <path class="cls-1" d="M134.12,119.24c0-.36-.29-.66-.66-.66s-.66.29-.66.66.29.66.66.66.66-.29.66-.66Z"/>
      </g>
      <g>
        <path class="cls-1" d="M127.01,320.41c-.81-.2-2.06-.55-2.75-1.19-.82-.77-1.25-3.05-1.47-4.33-.03-.16-.26-.16-.28,0-.19,1.32-.62,3.71-1.56,4.52-.66.57-1.79.87-2.55,1.03-.15.03-.15.24,0,.27.82.19,2.09.57,2.84,1.34.7.72,1.06,2.49,1.25,3.59.03.16.25.16.28,0,.17-1.1.51-2.87,1.2-3.59.78-.81,2.17-1.18,3.03-1.36.15-.03.15-.24,0-.27Z"/>
        <path class="cls-1" d="M125.72,306.26c0-1.65-1.34-2.99-2.99-2.99s-2.99,1.34-2.99,2.99,1.34,2.99,2.99,2.99,2.99-1.34,2.99-2.99Z"/>
        <path class="cls-1" d="M125.72,279.65c0-1.65-1.34-2.99-2.99-2.99s-2.99,1.34-2.99,2.99,1.34,2.99,2.99,2.99,2.99-1.34,2.99-2.99Z"/>
        <path class="cls-1" d="M122.73,288.66c-2.16,0-3.92,1.75-3.92,3.92s1.75,3.92,3.92,3.92,3.92-1.75,3.92-3.92-1.75-3.92-3.92-3.92Z"/>
      </g>
      <g>
        <path class="cls-1" d="M160.4,291.22c0-.52-.42-.94-.94-.94s-.94.42-.94.94.42.94.94.94.94-.42.94-.94Z"/>
        <path class="cls-1" d="M201.77,229.2c0-.52-.42-.94-.94-.94s-.94.42-.94.94.42.94.94.94.94-.42.94-.94Z"/>
        <path class="cls-1" d="M92.77,314.4c0-.52-.42-.94-.94-.94s-.94.42-.94.94.42.94.94.94.94-.42.94-.94Z"/>
        <path class="cls-1" d="M28.27,203.28c0-.52-.42-.94-.94-.94s-.94.42-.94.94.42.94.94.94.94-.42.94-.94Z"/>
        <path class="cls-1" d="M53.03,142.11c0-.52-.42-.94-.94-.94s-.94.42-.94.94.42.94.94.94.94-.42.94-.94Z"/>
        <path class="cls-1" d="M64.92,81c0-.52-.42-.94-.94-.94s-.94.42-.94.94.42.94.94.94.94-.42.94-.94Z"/>
        <path class="cls-1" d="M186.19,73.37c0-.52-.42-.94-.94-.94s-.94.42-.94.94.42.94.94.94.94-.42.94-.94Z"/>
        <path class="cls-1" d="M221.49,134.66c0-.52-.42-.94-.94-.94s-.94.42-.94.94.42.94.94.94.94-.42.94-.94Z"/>
        <path class="cls-1" d="M212.75,321.86c0-.52-.42-.94-.94-.94s-.94.42-.94.94.42.94.94.94.94-.42.94-.94Z"/>
        <path class="cls-1" d="M144.99,338.79c0-.52-.42-.94-.94-.94s-.94.42-.94.94.42.94.94.94.94-.42.94-.94Z"/>
        <path class="cls-1" d="M28.45,290.33c0-.52-.42-.94-.94-.94s-.94.42-.94.94.42.94.94.94.94-.42.94-.94Z"/>
        <circle class="cls-1" cx="64.2" cy="251.96" r=".66"/>
        <circle class="cls-1" cx="173.51" cy="254.6" r=".66"/>
        <circle class="cls-1" cx="97.79" cy="299.31" r=".66"/>
        <circle class="cls-1" cx="189.51" cy="176.93" r=".66"/>
        <circle class="cls-1" cx="204.06" cy="205.01" r=".66"/>
        <circle class="cls-1" cx="68.67" cy="124.49" r=".66"/>
        <circle class="cls-1" cx="27.46" cy="135.42" r=".66"/>
        <circle class="cls-1" cx="122.07" cy="349.51" r=".66"/>
        <circle class="cls-1" cx="46.57" cy="165.24" r=".66"/>
        <circle class="cls-1" cx="40.44" cy="198.21" r=".66"/>
        <circle class="cls-1" cx="23.31" cy="64.8" r=".66"/>
        <circle class="cls-1" cx="215.57" cy="67.69" r=".66"/>
        <circle class="cls-1" cx="180.9" cy="118.5" r=".66"/>
        <circle class="cls-1" cx="196.43" cy="132.55" r=".66"/>
        <circle class="cls-1" cx="105.03" cy="119.75" r=".66"/>
        <circle class="cls-1" cx="114.63" cy="137.73" r=".66"/>
        <circle class="cls-1" cx="145.86" cy="275.31" r=".66"/>
        <circle class="cls-1" cx="170.86" cy="270.69" r=".66"/>
        <circle class="cls-1" cx="162.25" cy="315.01" r=".66"/>
        <circle class="cls-1" cx="140.94" cy="306.62" r=".66"/>
        <circle class="cls-1" cx="103.94" cy="328.28" r=".66"/>
        <circle class="cls-1" cx="52.04" cy="317.08" r=".66"/>
        <circle class="cls-1" cx="45.62" cy="270.85" r=".66"/>
        <circle class="cls-1" cx="59.11" cy="227.24" r=".66"/>
        <circle class="cls-1" cx="166.06" cy="75.59" r=".66"/>
        <circle class="cls-1" cx="84.16" cy="68.77" r=".66"/>
      </g>
    </g>
  </g>
</svg>